<svg xmlns="http://www.w3.org/2000/svg" viewBox="0 0 256 256">
  <defs><linearGradient id="bg" x1="0" y1="0" x2="1" y2="1"><stop offset="0%" stop-color="#16344d"/><stop offset="100%" stop-color="#0b1926"/></linearGradient></defs>
  <rect x="16" y="16" width="224" height="224" rx="36" fill="url(#bg)" stroke="#f7eab4" stroke-width="6"/>
  <rect x="28" y="28" width="200" height="200" rx="28" fill="#fff5d8" opacity="0.08"/>
  <ellipse cx="128" cy="88" rx="54" ry="20" fill="none" stroke="#fff4cf" stroke-width="10"/>
  <path d="M128 102c-18 18-22 34-22 48 0 18 12 32 22 44 10-12 22-26 22-44 0-14-4-30-22-48z" fill="none" stroke="#ffd76a" stroke-width="10" stroke-linejoin="round"/>
  <path d="M128 126c-6 8-8 14-8 22 0 10 4 18 8 24 4-6 8-14 8-24 0-8-2-14-8-22z" fill="#9fe5ff"/>
</svg>
