<svg xmlns="http://www.w3.org/2000/svg" viewBox="0 0 256 256">
  <defs><linearGradient id="bg" x1="0" y1="0" x2="1" y2="1"><stop offset="0%" stop-color="#17354f"/><stop offset="100%" stop-color="#0a1724"/></linearGradient></defs>
  <rect x="16" y="16" width="224" height="224" rx="36" fill="url(#bg)" stroke="#c9f1ff" stroke-width="6"/>
  <rect x="28" y="28" width="200" height="200" rx="28" fill="#e5f7ff" opacity="0.08"/>
  <path d="M128 184c-34-20-52-40-52-68 0-18 12-30 28-30 10 0 18 4 24 12 6-8 14-12 24-12 16 0 28 12 28 30 0 28-18 48-52 68z" fill="none" stroke="#eaf8ff" stroke-width="10" stroke-linejoin="round"/>
  <path d="M112 108l-12 24h18l-10 24 36-36h-18l10-24z" fill="#ffd76a"/>
</svg>
