<svg width="128" height="128" viewBox="0 0 128 128" fill="none" xmlns="http://www.w3.org/2000/svg">
  <rect x="10" y="10" width="108" height="108" rx="14" fill="#D9EEF2"/>
  <path d="M22 20H106L98 36H30L22 20Z" fill="#F4FFFF" fill-opacity="0.95"/>
  <path d="M20 22L36 104L18 96L20 22Z" fill="#BDD8DE" fill-opacity="0.95"/>
  <path d="M108 20L92 104L110 96L108 20Z" fill="#C7E0E5" fill-opacity="0.9"/>
  <path d="M30 96H98L106 108H22L30 96Z" fill="#B6D1D7" fill-opacity="0.95"/>
  <rect x="14" y="14" width="100" height="100" rx="11" stroke="#F7FFFF" stroke-opacity="0.55" stroke-width="2"/>
  <path d="M42 86C49 78 54 71 56 62C58 54 58 47 55 39L64 47L73 39C70 47 70 54 72 62C74 71 79 78 86 86C78 84 71 81 64 76C57 81 50 84 42 86Z" fill="#47545A"/>
  <path d="M48 40L58 19L62 40H48Z" fill="#47545A"/>
  <path d="M66 40L70 19L80 40H66Z" fill="#47545A"/>
</svg>
