<svg width="128" height="128" viewBox="0 0 128 128" fill="none" xmlns="http://www.w3.org/2000/svg">
  <rect x="10" y="10" width="108" height="108" rx="14" fill="#D9EEF2"/>
  <path d="M22 20H106L98 36H30L22 20Z" fill="#F4FFFF" fill-opacity="0.95"/>
  <path d="M20 22L36 104L18 96L20 22Z" fill="#BDD8DE" fill-opacity="0.95"/>
  <path d="M108 20L92 104L110 96L108 20Z" fill="#C7E0E5" fill-opacity="0.9"/>
  <path d="M30 96H98L106 108H22L30 96Z" fill="#B6D1D7" fill-opacity="0.95"/>
  <rect x="14" y="14" width="100" height="100" rx="11" stroke="#F7FFFF" stroke-opacity="0.55" stroke-width="2"/>
  <path d="M64 28L88 38V58C88 74 78 87 64 94C50 87 40 74 40 58V38L64 28Z" fill="#47545A"/>
  <path d="M58 42H70V80H58V42Z" fill="#EAF8FB"/>
  <path d="M45 55H83V67H45V55Z" fill="#EAF8FB"/>
  <path d="M64 22L69 30H59L64 22Z" fill="#47545A"/>
  <path d="M32 42L41 40L39 49L32 42Z" fill="#47545A"/>
  <path d="M96 42L89 49L87 40L96 42Z" fill="#47545A"/>
  <path d="M64 100L58 92H70L64 100Z" fill="#47545A"/>
</svg>
