<svg width="128" height="128" viewBox="0 0 128 128" fill="none" xmlns="http://www.w3.org/2000/svg">
  <rect x="10" y="10" width="108" height="108" rx="14" fill="#D9EEF2"/>
  <path d="M22 20H106L98 36H30L22 20Z" fill="#F4FFFF" fill-opacity="0.95"/>
  <path d="M20 22L36 104L18 96L20 22Z" fill="#BDD8DE" fill-opacity="0.95"/>
  <path d="M108 20L92 104L110 96L108 20Z" fill="#C7E0E5" fill-opacity="0.9"/>
  <path d="M30 96H98L106 108H22L30 96Z" fill="#B6D1D7" fill-opacity="0.95"/>
  <rect x="14" y="14" width="100" height="100" rx="11" stroke="#F7FFFF" stroke-opacity="0.55" stroke-width="2"/>
  <path d="M43 41H63C67.4183 41 71 44.5817 71 49V86H49C45.6863 86 43 83.3137 43 80V41Z" fill="#47545A"/>
  <path d="M85 41H65C60.5817 41 57 44.5817 57 49V86H79C82.3137 86 85 83.3137 85 80V41Z" fill="#5A676D"/>
  <path d="M50 55H64" stroke="#D9EEF2" stroke-width="4" stroke-linecap="round"/>
  <path d="M64 55H78" stroke="#D9EEF2" stroke-width="4" stroke-linecap="round"/>
</svg>
