<svg width="128" height="128" viewBox="0 0 128 128" fill="none" xmlns="http://www.w3.org/2000/svg">
  <rect x="10" y="10" width="108" height="108" rx="14" fill="#D9EEF2"/>
  <path d="M22 20H106L98 36H30L22 20Z" fill="#F4FFFF" fill-opacity="0.95"/>
  <path d="M20 22L36 104L18 96L20 22Z" fill="#BDD8DE" fill-opacity="0.95"/>
  <path d="M108 20L92 104L110 96L108 20Z" fill="#C7E0E5" fill-opacity="0.9"/>
  <path d="M30 96H98L106 108H22L30 96Z" fill="#B6D1D7" fill-opacity="0.95"/>
  <rect x="14" y="14" width="100" height="100" rx="11" stroke="#F7FFFF" stroke-opacity="0.55" stroke-width="2"/>
  <path d="M47 45H81L87 56V83C87 87.4183 83.4183 91 79 91H49C44.5817 91 41 87.4183 41 83V56L47 45Z" fill="#47545A"/>
  <path d="M54 54C54 48.4772 58.4772 44 64 44C69.5228 44 74 48.4772 74 54" stroke="#D9EEF2" stroke-width="6" stroke-linecap="round"/>
  <circle cx="64" cy="69" r="10" fill="#D9EEF2"/>
  <path d="M64 63V75" stroke="#47545A" stroke-width="4" stroke-linecap="round"/>
  <path d="M59 66.5H67" stroke="#47545A" stroke-width="4" stroke-linecap="round"/>
</svg>
