<svg width="128" height="128" viewBox="0 0 128 128" fill="none" xmlns="http://www.w3.org/2000/svg">
  <rect x="10" y="10" width="108" height="108" rx="14" fill="#D9EEF2"/>
  <path d="M22 20H106L98 36H30L22 20Z" fill="#F4FFFF" fill-opacity="0.95"/>
  <path d="M20 22L36 104L18 96L20 22Z" fill="#BDD8DE" fill-opacity="0.95"/>
  <path d="M108 20L92 104L110 96L108 20Z" fill="#C7E0E5" fill-opacity="0.9"/>
  <path d="M30 96H98L106 108H22L30 96Z" fill="#B6D1D7" fill-opacity="0.95"/>
  <rect x="14" y="14" width="100" height="100" rx="11" stroke="#F7FFFF" stroke-opacity="0.55" stroke-width="2"/>
  <path d="M45 38L60 53L55 58L40 43L45 38Z" fill="#47545A"/>
  <path d="M70 63L85 78L80 83L65 68L70 63Z" fill="#47545A"/>
  <path d="M41 87L63 65L69 71L47 93L41 87Z" fill="#47545A"/>
  <path d="M67 61L89 39L95 45L73 67L67 61Z" fill="#47545A"/>
  <circle cx="63.5" cy="63.5" r="7.5" fill="#47545A"/>
</svg>
