<svg width="128" height="128" viewBox="0 0 128 128" fill="none" xmlns="http://www.w3.org/2000/svg">
  <rect x="10" y="10" width="108" height="108" rx="14" fill="#D9EEF2"/>
  <path d="M22 20H106L98 36H30L22 20Z" fill="#F4FFFF" fill-opacity="0.95"/>
  <path d="M20 22L36 104L18 96L20 22Z" fill="#BDD8DE" fill-opacity="0.95"/>
  <path d="M108 20L92 104L110 96L108 20Z" fill="#C7E0E5" fill-opacity="0.9"/>
  <path d="M30 96H98L106 108H22L30 96Z" fill="#B6D1D7" fill-opacity="0.95"/>
  <rect x="14" y="14" width="100" height="100" rx="11" stroke="#F7FFFF" stroke-opacity="0.55" stroke-width="2"/>
  <path d="M56 52C56 47.5817 59.5817 44 64 44C68.4183 44 72 47.5817 72 52C72 55.0034 70.4144 57.4753 68 58.8585C64.8123 60.6852 63 61.7915 63 66" stroke="#47545A" stroke-width="8" stroke-linecap="round"/>
  <circle cx="64" cy="80" r="5" fill="#47545A"/>
</svg>
