<svg width="128" height="128" viewBox="0 0 128 128" fill="none" xmlns="http://www.w3.org/2000/svg">
  <rect x="10" y="10" width="108" height="108" rx="14" fill="#D9EEF2"/>
  <path d="M22 20H106L98 36H30L22 20Z" fill="#F4FFFF" fill-opacity="0.95"/>
  <path d="M20 22L36 104L18 96L20 22Z" fill="#BDD8DE" fill-opacity="0.95"/>
  <path d="M108 20L92 104L110 96L108 20Z" fill="#C7E0E5" fill-opacity="0.9"/>
  <path d="M30 96H98L106 108H22L30 96Z" fill="#B6D1D7" fill-opacity="0.95"/>
  <rect x="14" y="14" width="100" height="100" rx="11" stroke="#F7FFFF" stroke-opacity="0.55" stroke-width="2"/>
  <path d="M60 34H68L70 42C72.4258 42.6932 74.666 43.7727 76.672 45.176L84 41L90 47L85.824 54.328C87.2273 56.334 88.3068 58.5742 89 61L97 63V71L89 73C88.3068 75.4258 87.2273 77.666 85.824 79.672L90 87L84 93L76.672 88.824C74.666 90.2273 72.4258 91.3068 70 92L68 100H60L58 92C55.5742 91.3068 53.334 90.2273 51.328 88.824L44 93L38 87L42.176 79.672C40.7727 77.666 39.6932 75.4258 39 73L31 71V63L39 61C39.6932 58.5742 40.7727 56.334 42.176 54.328L38 47L44 41L51.328 45.176C53.334 43.7727 55.5742 42.6932 58 42L60 34Z" fill="#47545A"/>
  <circle cx="64" cy="67" r="11" fill="#D9EEF2"/>
  <circle cx="64" cy="67" r="6" fill="#47545A"/>
</svg>
